<svg width="50" height="50" viewBox="0 0 50 50" fill="none" xmlns="http://www.w3.org/2000/svg">
<path d="M43.75 0H6.25C2.79845 0 0 2.79845 0 6.25V43.75C0 47.2016 2.79845 50 6.25 50H43.75C47.2016 50 50 47.2016 50 43.75V6.25C50 2.79845 47.2016 0 43.75 0ZM32.7344 30.525C33.3453 31.136 33.3453 32.125 32.7344 32.7344C32.1234 33.3453 31.1344 33.3453 30.525 32.7344L25 27.2094L19.475 32.7328C18.8641 33.3438 17.875 33.3438 17.2656 32.7328C16.6547 32.1218 16.6547 31.1328 17.2656 30.5234L22.7906 25L17.2656 19.4766C16.6547 18.8656 16.6547 17.8766 17.2656 17.2672C17.8766 16.6563 18.8656 16.6563 19.475 17.2672L25 22.7906L30.525 17.2656C31.136 16.6547 32.125 16.6547 32.7344 17.2656C33.3453 17.8766 33.3453 18.8656 32.7344 19.475L27.2094 25L32.7344 30.525Z" fill="#2AABE4"/>
</svg>
