<?xml version="1.0" standalone="no"?>
<!DOCTYPE svg PUBLIC "-//W3C//DTD SVG 20010904//EN"
 "http://www.w3.org/TR/2001/REC-SVG-20010904/DTD/svg10.dtd">
<svg version="1.0" xmlns="http://www.w3.org/2000/svg"
 width="432.000000pt" height="134.000000pt" viewBox="0 0 432.000000 134.000000"
 preserveAspectRatio="xMidYMid meet">
<metadata>
Created by potrace 1.16, written by Peter Selinger 2001-2019
</metadata>
<g transform="translate(0.000000,134.000000) scale(0.100000,-0.100000)"
fill="#000000" stroke="none">
<path d="M3058 1050 c-81 -14 -148 -41 -184 -72 -34 -30 -34 -30 -34 -118 l0
-89 37 -30 c132 -109 482 -100 582 15 28 31 31 41 31 100 0 79 -16 112 -67
141 -87 48 -257 73 -365 53z"/>
<path d="M270 980 l0 -60 65 0 65 0 0 -300 0 -300 70 0 70 0 2 298 3 297 63 3
62 3 0 59 0 60 -200 0 -200 0 0 -60z"/>
<path d="M710 680 l0 -360 70 0 70 0 0 115 0 115 29 0 c27 0 32 -7 79 -112
l50 -113 66 -3 c38 -2 66 1 66 7 0 5 -24 64 -54 130 l-54 120 34 36 c86 92 82
288 -8 372 -45 43 -89 53 -223 53 l-125 0 0 -360z m255 210 c45 -43 45 -141 0
-186 -18 -18 -35 -24 -70 -24 l-45 0 0 121 0 122 46 -6 c28 -3 54 -13 69 -27z"/>
<path d="M1325 1028 c-7 -21 -155 -686 -155 -698 0 -6 26 -10 65 -10 62 0 65
1 71 28 3 15 7 33 10 40 2 8 28 12 84 12 56 0 82 -4 84 -12 3 -7 7 -25 10 -41
6 -26 9 -27 71 -27 36 0 65 3 66 8 0 4 -35 166 -78 359 l-78 353 -73 0 c-49 0
-74 -4 -77 -12z m134 -490 c1 -15 -8 -18 -59 -18 -33 0 -60 4 -60 8 0 15 51
297 57 317 6 17 61 -256 62 -307z"/>
<path d="M1680 680 l0 -360 65 0 65 0 0 360 0 360 -65 0 -65 0 0 -360z"/>
<path d="M1890 680 l0 -360 72 0 71 0 -6 216 c-3 123 -2 213 3 208 5 -5 46
-101 92 -214 l84 -205 72 -3 72 -3 0 361 0 360 -70 0 -71 0 7 -217 c4 -139 3
-214 -3 -208 -5 6 -48 103 -94 217 l-84 208 -72 0 -73 0 0 -360z"/>
<path d="M2430 680 l0 -360 175 0 175 0 0 60 0 60 -105 0 -105 0 0 85 0 85 90
0 90 0 0 65 0 65 -90 0 -90 0 0 90 0 90 105 0 105 0 0 60 0 60 -175 0 -175 0
0 -360z"/>
<path d="M3560 680 l0 -360 68 0 67 0 -3 187 c-2 104 -2 202 0 218 2 24 22
-16 92 -187 l88 -218 69 0 69 0 0 360 0 360 -65 0 -66 0 3 -215 c2 -118 1
-215 -2 -215 -3 0 -44 96 -92 213 l-86 212 -71 3 -71 3 0 -361z"/>
<path d="M3447 696 c-115 -102 -473 -98 -584 6 l-23 21 0 -64 c0 -80 12 -98
87 -132 161 -72 432 -53 528 37 33 32 35 37 35 100 0 36 -1 66 -2 66 -2 -1
-20 -16 -41 -34z"/>
<path d="M2840 477 c0 -75 14 -99 78 -131 71 -35 136 -47 247 -47 144 1 250
34 300 93 20 24 25 40 25 88 l0 59 -51 -34 c-58 -40 -94 -51 -201 -66 -133
-19 -309 17 -372 76 l-26 24 0 -62z"/>
</g>
</svg>
